<?xml version="1.0" encoding="UTF-8" standalone="no"?>
<!DOCTYPE svg PUBLIC "-//W3C//DTD SVG 1.0//EN" "http://www.w3.org/TR/2001/PR-SVG-20010719/DTD/svg10.dtd">
<svg width="45cm" height="19cm" viewBox="177 150 889 376" xmlns="http://www.w3.org/2000/svg" xmlns:xlink="http://www.w3.org/1999/xlink">
  <g>
    <rect style="fill: #ffffff" x="177" y="151" width="180" height="18"/>
    <rect style="fill: none; fill-opacity:0; stroke-width: 2; stroke: #000000" x="177" y="151" width="180" height="18"/>
    <text font-size="11.2" style="fill: #000000;text-anchor:middle;font-family:sans-serif;font-style:normal;font-weight:700" x="267" y="165">pracownik</text>
    <rect style="fill: #ffffff" x="177" y="169" width="180" height="228"/>
    <rect style="fill: none; fill-opacity:0; stroke-width: 2; stroke: #000000" x="177" y="169" width="180" height="228"/>
    <polygon style="fill: #000000" points="180,179 182,182 184,179 182,176 "/>
    <text font-size="12.8" style="fill: #000000;text-anchor:start;font-family:monospace;font-style:normal;font-weight:normal" x="186" y="185">nr_hr           (PK)</text>
    <ellipse style="fill: #000000" cx="182" cy="195" rx="2" ry="2"/>
    <text font-size="12.8" style="fill: #000000;text-anchor:start;font-family:monospace;font-style:normal;font-weight:normal" x="186" y="201">imie</text>
    <ellipse style="fill: #000000" cx="182" cy="211" rx="2" ry="2"/>
    <text font-size="12.8" style="fill: #000000;text-anchor:start;font-family:monospace;font-style:normal;font-weight:normal" x="186" y="217">nazwisko</text>
    <ellipse style="fill: #000000" cx="182" cy="227" rx="2" ry="2"/>
    <text font-size="12.8" style="fill: #000000;text-anchor:start;font-family:monospace;font-style:normal;font-weight:normal" x="186" y="233">pesel</text>
    <ellipse style="fill: #000000" cx="182" cy="243" rx="2" ry="2"/>
    <text font-size="12.8" style="fill: #000000;text-anchor:start;font-family:monospace;font-style:normal;font-weight:normal" x="186" y="249">data_urodzenia</text>
    <ellipse style="fill: #000000" cx="182" cy="259" rx="2" ry="2"/>
    <text font-size="12.8" style="fill: #000000;text-anchor:start;font-family:monospace;font-style:normal;font-weight:normal" x="186" y="265">numer_telefonu</text>
    <ellipse style="fill: #000000" cx="182" cy="275" rx="2" ry="2"/>
    <text font-size="12.8" style="fill: #000000;text-anchor:start;font-family:monospace;font-style:normal;font-weight:normal" x="186" y="281">miejscowosc</text>
    <ellipse style="fill: #000000" cx="182" cy="291" rx="2" ry="2"/>
    <text font-size="12.8" style="fill: #000000;text-anchor:start;font-family:monospace;font-style:normal;font-weight:normal" x="186" y="297">ulica</text>
    <ellipse style="fill: #000000" cx="182" cy="307" rx="2" ry="2"/>
    <text font-size="12.8" style="fill: #000000;text-anchor:start;font-family:monospace;font-style:normal;font-weight:normal" x="186" y="313">numer_domu</text>
    <ellipse style="fill: #000000" cx="182" cy="323" rx="2" ry="2"/>
    <text font-size="12.8" style="fill: #000000;text-anchor:start;font-family:monospace;font-style:normal;font-weight:normal" x="186" y="329">kod_pocztowy</text>
    <ellipse style="fill: none; fill-opacity:0; stroke-width: 0.2; stroke: #000000" cx="182" cy="339" rx="2" ry="2"/>
    <text font-size="12.8" style="fill: #000000;text-anchor:start;font-family:monospace;font-style:normal;font-weight:normal" x="186" y="345">wyksztalcenie</text>
    <ellipse style="fill: none; fill-opacity:0; stroke-width: 0.2; stroke: #000000" cx="182" cy="355" rx="2" ry="2"/>
    <text font-size="12.8" style="fill: #000000;text-anchor:start;font-family:monospace;font-style:normal;font-weight:normal" x="186" y="361">hobby</text>
    <ellipse style="fill: none; fill-opacity:0; stroke-width: 0.2; stroke: #000000" cx="182" cy="371" rx="2" ry="2"/>
    <text font-size="12.8" style="fill: #000000;text-anchor:start;font-family:monospace;font-style:normal;font-weight:normal" x="186" y="377">kwalifikacja_id (FK)</text>
    <ellipse style="fill: none; fill-opacity:0; stroke-width: 0.2; stroke: #000000" cx="182" cy="387" rx="2" ry="2"/>
    <text font-size="12.8" style="fill: #000000;text-anchor:start;font-family:monospace;font-style:normal;font-weight:normal" x="186" y="393">stanowisko_id   (FK)</text>
  </g>
  <g>
    <rect style="fill: #ffffff" x="454" y="155" width="195.4" height="18"/>
    <rect style="fill: none; fill-opacity:0; stroke-width: 2; stroke: #000000" x="454" y="155" width="195.4" height="18"/>
    <text font-size="11.2" style="fill: #000000;text-anchor:middle;font-family:sans-serif;font-style:normal;font-weight:700" x="551.7" y="169">kwalifikacja</text>
    <rect style="fill: #ffffff" x="454" y="173" width="195.4" height="52"/>
    <rect style="fill: none; fill-opacity:0; stroke-width: 2; stroke: #000000" x="454" y="173" width="195.4" height="52"/>
    <polygon style="fill: #000000" points="457,183 459,186 461,183 459,180 "/>
    <text font-size="12.8" style="fill: #000000;text-anchor:start;font-family:monospace;font-style:normal;font-weight:normal" x="463" y="189">id                (PK)</text>
    <ellipse style="fill: #000000" cx="459" cy="199" rx="2" ry="2"/>
    <text font-size="12.8" style="fill: #000000;text-anchor:start;font-family:monospace;font-style:normal;font-weight:normal" x="463" y="205">nazwa</text>
    <ellipse style="fill: none; fill-opacity:0; stroke-width: 0.2; stroke: #000000" cx="459" cy="215" rx="2" ry="2"/>
    <text font-size="12.8" style="fill: #000000;text-anchor:start;font-family:monospace;font-style:normal;font-weight:normal" x="463" y="221">opis</text>
  </g>
  <g>
    <rect style="fill: #ffffff" x="395" y="423" width="187.7" height="18"/>
    <rect style="fill: none; fill-opacity:0; stroke-width: 2; stroke: #000000" x="395" y="423" width="187.7" height="18"/>
    <text font-size="11.2" style="fill: #000000;text-anchor:middle;font-family:sans-serif;font-style:normal;font-weight:700" x="488.85" y="437">wymagania</text>
    <rect style="fill: #ffffff" x="395" y="441" width="187.7" height="52"/>
    <rect style="fill: none; fill-opacity:0; stroke-width: 2; stroke: #000000" x="395" y="441" width="187.7" height="52"/>
    <polygon style="fill: #000000" points="398,451 400,454 402,451 400,448 "/>
    <text font-size="12.8" style="fill: #000000;text-anchor:start;font-family:monospace;font-style:normal;font-weight:normal" x="404" y="457">id               (PK)</text>
    <ellipse style="fill: #000000" cx="400" cy="467" rx="2" ry="2"/>
    <text font-size="12.8" style="fill: #000000;text-anchor:start;font-family:monospace;font-style:normal;font-weight:normal" x="404" y="473">nazwa</text>
    <ellipse style="fill: none; fill-opacity:0; stroke-width: 0.2; stroke: #000000" cx="400" cy="483" rx="2" ry="2"/>
    <text font-size="12.8" style="fill: #000000;text-anchor:start;font-family:monospace;font-style:normal;font-weight:normal" x="404" y="489">poziom</text>
  </g>
  <g>
    <rect style="fill: #ffffff" x="767" y="215" width="249.3" height="18"/>
    <rect style="fill: none; fill-opacity:0; stroke-width: 2; stroke: #000000" x="767" y="215" width="249.3" height="18"/>
    <text font-size="11.2" style="fill: #000000;text-anchor:middle;font-family:sans-serif;font-style:normal;font-weight:700" x="891.65" y="229">stanowisko</text>
    <rect style="fill: #ffffff" x="767" y="233" width="249.3" height="84"/>
    <rect style="fill: none; fill-opacity:0; stroke-width: 2; stroke: #000000" x="767" y="233" width="249.3" height="84"/>
    <polygon style="fill: #000000" points="770,243 772,246 774,243 772,240 "/>
    <text font-size="12.8" style="fill: #000000;text-anchor:start;font-family:monospace;font-style:normal;font-weight:normal" x="776" y="249">id                       (PK)</text>
    <ellipse style="fill: #000000" cx="772" cy="259" rx="2" ry="2"/>
    <text font-size="12.8" style="fill: #000000;text-anchor:start;font-family:monospace;font-style:normal;font-weight:normal" x="776" y="265">nazwa</text>
    <ellipse style="fill: none; fill-opacity:0; stroke-width: 0.2; stroke: #000000" cx="772" cy="275" rx="2" ry="2"/>
    <text font-size="12.8" style="fill: #000000;text-anchor:start;font-family:monospace;font-style:normal;font-weight:normal" x="776" y="281">dzial_id                 (FK)</text>
    <ellipse style="fill: none; fill-opacity:0; stroke-width: 0.2; stroke: #000000" cx="772" cy="291" rx="2" ry="2"/>
    <text font-size="12.8" style="fill: #000000;text-anchor:start;font-family:monospace;font-style:normal;font-weight:normal" x="776" y="297">minimalne_wyksztalcenie</text>
    <ellipse style="fill: #000000" cx="772" cy="307" rx="2" ry="2"/>
    <text font-size="12.8" style="fill: #000000;text-anchor:start;font-family:monospace;font-style:normal;font-weight:normal" x="776" y="313">wynagrodzenie</text>
  </g>
  <g>
    <rect style="fill: #ffffff" x="824" y="358" width="156.9" height="18"/>
    <rect style="fill: none; fill-opacity:0; stroke-width: 2; stroke: #000000" x="824" y="358" width="156.9" height="18"/>
    <text font-size="11.2" style="fill: #000000;text-anchor:middle;font-family:sans-serif;font-style:normal;font-weight:700" x="902.45" y="372">dzial</text>
    <rect style="fill: #ffffff" x="824" y="376" width="156.9" height="52"/>
    <rect style="fill: none; fill-opacity:0; stroke-width: 2; stroke: #000000" x="824" y="376" width="156.9" height="52"/>
    <polygon style="fill: #000000" points="827,386 829,389 831,386 829,383 "/>
    <text font-size="12.8" style="fill: #000000;text-anchor:start;font-family:monospace;font-style:normal;font-weight:normal" x="833" y="392">id           (PK)</text>
    <ellipse style="fill: #000000" cx="829" cy="402" rx="2" ry="2"/>
    <text font-size="12.8" style="fill: #000000;text-anchor:start;font-family:monospace;font-style:normal;font-weight:normal" x="833" y="408">nazwa</text>
    <ellipse style="fill: none; fill-opacity:0; stroke-width: 0.2; stroke: #000000" cx="829" cy="418" rx="2" ry="2"/>
    <text font-size="12.8" style="fill: #000000;text-anchor:start;font-family:monospace;font-style:normal;font-weight:normal" x="833" y="424">ilosc_stanowisk</text>
  </g>
  <g>
    <polyline style="fill: none; fill-opacity:0; stroke-width: 2; stroke: #000000" points="357,371 405.5,371 405.5,183 454,183 "/>
    <line style="fill: none; fill-opacity:0; stroke-width: 2; stroke: #000000" x1="367" y1="371" x2="357" y2="366"/>
    <line style="fill: none; fill-opacity:0; stroke-width: 2; stroke: #000000" x1="367" y1="371" x2="357" y2="376"/>
    <line style="fill: none; fill-opacity:0; stroke-width: 2; stroke: #000000" x1="444" y1="188" x2="444" y2="178"/>
  </g>
  <g>
    <polyline style="fill: none; fill-opacity:0; stroke-width: 2; stroke: #000000" points="980.9,386 1037.3,386 1037.3,275 1016.3,275 "/>
    <line style="fill: none; fill-opacity:0; stroke-width: 2; stroke: #000000" x1="985.9" y1="391" x2="985.9" y2="381"/>
    <line style="fill: none; fill-opacity:0; stroke-width: 2; stroke: #000000" x1="990.9" y1="391" x2="990.9" y2="381"/>
    <line style="fill: none; fill-opacity:0; stroke-width: 2; stroke: #000000" x1="1026.3" y1="275" x2="1016.3" y2="270"/>
    <line style="fill: none; fill-opacity:0; stroke-width: 2; stroke: #000000" x1="1026.3" y1="275" x2="1016.3" y2="280"/>
  </g>
  <g>
    <rect style="fill: #e5e5e5" x="640.502" y="472.5" width="257" height="18"/>
    <rect style="fill: none; fill-opacity:0; stroke-width: 2; stroke: #000000" x="640.502" y="472.5" width="257" height="18"/>
    <text font-size="11.2" style="fill: #000000;text-anchor:middle;font-family:sans-serif;font-style:normal;font-weight:700" x="769.002" y="486.5">stanowisko_wymagania</text>
    <rect style="fill: #e5e5e5" x="640.502" y="490.5" width="257" height="36"/>
    <rect style="fill: none; fill-opacity:0; stroke-width: 2; stroke: #000000" x="640.502" y="490.5" width="257" height="36"/>
    <polygon style="fill: #000000" points="643.502,500.5 645.502,503.5 647.502,500.5 645.502,497.5 "/>
    <text font-size="12.8" style="fill: #000000;text-anchor:start;font-family:monospace;font-style:normal;font-weight:normal" x="649.502" y="506.5">wymagania_id          (PK)(FK)</text>
    <polygon style="fill: #000000" points="643.502,516.5 645.502,519.5 647.502,516.5 645.502,513.5 "/>
    <text font-size="12.8" style="fill: #000000;text-anchor:start;font-family:monospace;font-style:normal;font-weight:normal" x="649.502" y="522.5">stanowisko_pracy_id   (PK)(FK)</text>
  </g>
  <g>
    <polyline style="fill: none; fill-opacity:0; stroke-width: 2; stroke: #000000" points="640.502,500.5 611.601,500.5 611.601,451 582.7,451 "/>
    <line style="fill: none; fill-opacity:0; stroke-width: 2; stroke: #000000" x1="592.7" y1="451" x2="582.7" y2="446"/>
    <line style="fill: none; fill-opacity:0; stroke-width: 2; stroke: #000000" x1="592.7" y1="451" x2="582.7" y2="456"/>
    <line style="fill: none; fill-opacity:0; stroke-width: 2; stroke: #000000" x1="592.7" y1="446" x2="592.7" y2="456"/>
  </g>
  <g>
    <polyline style="fill: none; fill-opacity:0; stroke-width: 2; stroke: #000000" points="897.502,516.5 1064,516.5 1064,243 1016.3,243 "/>
    <line style="fill: none; fill-opacity:0; stroke-width: 2; stroke: #000000" x1="1026.3" y1="243" x2="1016.3" y2="238"/>
    <line style="fill: none; fill-opacity:0; stroke-width: 2; stroke: #000000" x1="1026.3" y1="243" x2="1016.3" y2="248"/>
    <line style="fill: none; fill-opacity:0; stroke-width: 2; stroke: #000000" x1="1026.3" y1="238" x2="1026.3" y2="248"/>
  </g>
  <g>
    <polyline style="fill: none; fill-opacity:0; stroke-width: 2; stroke: #000000" points="767,243 562,243 562,387 357,387 "/>
    <line style="fill: none; fill-opacity:0; stroke-width: 2; stroke: #000000" x1="757" y1="248" x2="757" y2="238"/>
    <line style="fill: none; fill-opacity:0; stroke-width: 2; stroke: #000000" x1="367" y1="387" x2="357" y2="382"/>
    <line style="fill: none; fill-opacity:0; stroke-width: 2; stroke: #000000" x1="367" y1="387" x2="357" y2="392"/>
  </g>
</svg>
